<svg data-v-423bf9ae="" xmlns="http://www.w3.org/2000/svg" viewBox="0 0 180.68650149259855 60" class="font"><!----><!----><!----><g data-v-423bf9ae="" id="979b316e-7a21-4c66-95c1-d66c0f524e69" fill="white" transform="matrix(6.86498873813172,0,0,6.86498873813172,-1.0983947688772986,-31.64759852252495)"><path d="M6.82 6.73L6.82 6.73Q6.82 7.42 6.31 8.08Q5.79 8.74 4.86 9.07L4.86 9.07L4.86 9.08L6.10 10.79Q6.36 11.15 6.47 11.30Q6.58 11.45 6.78 11.70Q6.97 11.94 7.09 12.04Q7.20 12.15 7.37 12.29Q7.55 12.43 7.71 12.51Q7.88 12.58 8.09 12.65L8.09 12.65L8.32 12.71L8.22 13.19Q7.83 13.32 7.40 13.32L7.40 13.32Q6.64 13.32 6.05 12.82Q5.46 12.33 4.96 11.44L4.96 11.44L3.88 9.50L2.69 9.50L2.69 12.31L3.98 12.61L3.91 13.17L0.16 13.17L0.23 12.67L1.38 12.35L1.38 5.65L0.21 5.44L0.27 4.92Q2.28 4.61 3.40 4.61L3.40 4.61Q4.18 4.61 4.79 4.72Q5.40 4.83 5.87 5.07Q6.33 5.31 6.58 5.73Q6.82 6.14 6.82 6.73ZM2.69 8.88L4.04 8.88Q4.61 8.69 5.01 8.24Q5.41 7.79 5.41 7.11L5.41 7.11Q5.41 6.25 4.90 5.71Q4.40 5.17 3.51 5.17L3.51 5.17Q3.29 5.17 3.09 5.19Q2.88 5.20 2.79 5.20L2.79 5.20L2.69 5.21L2.69 8.88ZM9.67 6.23L9.76 5.54L12.78 5.54L12.68 6.23L9.67 6.23ZM11.89 11.89L11.89 10.25Q10.83 10.45 10.39 10.82Q9.94 11.18 9.94 11.70L9.94 11.70Q9.94 12.00 10.15 12.25Q10.36 12.50 10.71 12.50L10.71 12.50Q11.03 12.50 11.36 12.30Q11.70 12.11 11.89 11.89L11.89 11.89ZM13.09 13.30L13.09 13.30Q12.55 13.30 12.29 13.02Q12.03 12.74 12.03 12.38L12.03 12.38L12.03 12.28L11.95 12.28Q11.87 12.43 11.73 12.60Q11.60 12.76 11.38 12.94Q11.16 13.12 10.82 13.23Q10.48 13.34 10.08 13.34L10.08 13.34Q9.52 13.34 9.13 12.98Q8.74 12.63 8.74 12.02L8.74 12.02Q8.74 11.63 8.92 11.28Q9.11 10.92 9.47 10.62Q9.84 10.32 10.47 10.12Q11.09 9.91 11.89 9.86L11.89 9.86L11.89 9.48Q11.89 9.11 11.84 8.80Q11.79 8.50 11.65 8.23Q11.52 7.96 11.28 7.82Q11.03 7.68 10.68 7.68L10.68 7.68Q10.47 7.68 10.34 7.76Q10.20 7.84 10.13 8.03Q10.06 8.21 10.02 8.40Q9.99 8.60 9.95 8.91L9.95 8.91Q9.94 9.06 9.93 9.13L9.93 9.13Q9.78 9.13 9.68 9.12Q9.58 9.11 9.44 9.07Q9.30 9.04 9.20 8.97Q9.11 8.89 9.04 8.75Q8.98 8.61 8.98 8.42L8.98 8.42Q8.98 8.07 9.37 7.73Q9.75 7.39 10.30 7.20L10.30 7.20Q10.83 7.01 11.31 7.01L11.31 7.01Q12.22 7.01 12.61 7.52Q13.01 8.03 13.01 9.12L13.01 9.12L13.01 11.61Q13.01 12.09 13.15 12.26Q13.30 12.44 13.77 12.52L13.77 12.52L14.10 12.58L14.03 13.16Q13.92 13.17 13.75 13.21Q13.58 13.25 13.42 13.28Q13.27 13.30 13.09 13.30ZM14.96 9.02L15.02 7.21L19.61 7.21L19.61 7.71L16.17 12.50L18.63 12.50L19.28 11.29L19.74 11.35L19.46 13.17L14.88 13.17L14.84 12.58L18.20 7.84L15.89 7.84L15.49 9.11L14.96 9.02ZM22.11 6.23L22.20 5.54L25.22 5.54L25.13 6.23L22.11 6.23ZM22.02 9.78L22.02 9.78Q22.02 10.33 22.12 10.83Q22.22 11.33 22.43 11.75Q22.63 12.18 23.00 12.43Q23.37 12.69 23.84 12.69L23.84 12.69Q24.30 12.69 24.63 12.39Q24.96 12.09 25.11 11.66Q25.26 11.22 25.26 10.72L25.26 10.72Q25.26 10.18 25.16 9.67Q25.06 9.17 24.86 8.72Q24.66 8.26 24.31 7.99Q23.95 7.72 23.49 7.72L23.49 7.72Q23.00 7.72 22.65 8.02Q22.31 8.31 22.17 8.76Q22.02 9.21 22.02 9.78ZM26.48 10.16L26.48 10.16Q26.48 11.09 26.09 11.83Q25.71 12.56 25.06 12.95Q24.40 13.35 23.61 13.35L23.61 13.35Q22.30 13.35 21.55 12.49Q20.80 11.62 20.80 10.26L20.80 10.26Q20.80 9.51 21.05 8.88Q21.30 8.25 21.72 7.85Q22.13 7.44 22.67 7.22Q23.20 7 23.78 7L23.78 7Q25.03 7 25.75 7.86Q26.48 8.73 26.48 10.16Z"></path></g><!----><!----></svg>