<svg xmlns="http://www.w3.org/2000/svg" xmlns:xlink="http://www.w3.org/1999/xlink" version="1.1" x="0px" y="0px" viewBox="0 0 30 30" xml:space="preserve"><g transform="translate(-510 -380)"><g xmlns="http://www.w3.org/2000/svg" xmlns:xlink="http://www.w3.org/1999/xlink"><path d="M517,391c-2.21,0-4,1.791-4,4s1.79,4,4,4c1.307,0,2.455-0.635,3.186-1.604l7.121,4.069    C527.11,401.938,527,402.456,527,403c0,2.209,1.79,4,4,4c2.209,0,4-1.791,4-4c0-1.861-1.277-3.412-3-3.858v-8.283    c1.723-0.446,3-1.997,3-3.858c0-2.209-1.791-4-4-4c-2.21,0-4,1.791-4,4c0,0.544,0.11,1.062,0.307,1.534l-7.121,4.069    C519.455,391.635,518.307,391,517,391z M517,398c-1.654,0-3-1.346-3-3s1.346-3,3-3s3,1.346,3,3S518.654,398,517,398z M534,403    c0,1.654-1.346,3-3,3s-3-1.346-3-3s1.346-3,3-3S534,401.346,534,403z M531,384c1.654,0,3,1.346,3,3s-1.346,3-3,3s-3-1.346-3-3    S529.346,384,531,384z M520.693,393.466l7.121-4.069c0.73,0.969,1.879,1.604,3.186,1.604v8c-1.307,0-2.455,0.635-3.186,1.604    l-7.121-4.069c0.196-0.473,0.307-0.99,0.307-1.534S520.89,393.938,520.693,393.466z"></path></g></g></svg>